<svg xmlns="http://www.w3.org/2000/svg" width="1280" height="640" fill="none"><g clip-path="url(#a)"><path fill="#fff" d="M0 0h1280v640H0z"/><g filter="url(#b)"><circle cx="1294" cy="628" r="288" fill="#fcd10a"/></g><g filter="url(#c)"><circle cx="-35.5" cy="-23.5" r="326.5" fill="#546ff2"/></g><path fill="url(#d)" d="M634.529 125.971a7.965 7.965 0 0 1 7.394-4.971h51.107c5.634 0 9.484 5.65 7.393 10.844l-39.137 97.149a7.96 7.96 0 0 1-7.393 4.971h-51.107c-5.634 0-9.484-5.651-7.394-10.845z"/><path fill="#0a33ff" d="M612.888 188.778c18.716 0 33.894-15.172 33.894-33.889 0-18.716-15.178-33.889-33.894-33.889S579 136.173 579 154.889s15.172 33.889 33.888 33.889"/><path fill="url(#e)" d="M646.777 154.889c0 18.716-15.172 33.889-33.888 33.889a34 34 0 0 1-3.583-.188l24.36-60.477c7.981 6.2 13.111 15.889 13.111 26.776"/><path fill="#000" d="M273.002 346v-9.398l21.016-21.608h-20.276v-8.806h33.448v9.398l-20.942 21.608h21.682V346zM328.325 346.888q-3.627 0-6.66-1.332t-4.81-3.848q-1.776-2.59-1.776-6.216 0-5.032 3.256-7.77 3.33-2.812 8.658-4.07l11.544-2.516q0-3.33-1.258-5.18-1.258-1.924-4.366-1.924-2.664 0-4.07 1.406t-1.776 3.478l-11.618-.592q1.11-5.92 5.698-9.472t11.47-3.552q9.102 0 13.172 4.366 4.07 4.291 4.07 12.21v13.172q0 1.627.518 2.22.517.518 1.48.518h1.332V346q-.445.073-1.48.222-1.036.148-2.22.148-3.108 0-5.328-1.11a7.97 7.97 0 0 1-3.33-3.182q-1.185-2.072-1.258-4.884h1.036a10.5 10.5 0 0 1-1.85 4.958q-1.554 2.22-4.218 3.478-2.59 1.258-6.216 1.258m2.516-8.214q2.442 0 4.144-.888t2.59-2.664q.962-1.776.962-4.292v-1.998l-7.696 1.776q-2.295.518-3.256 1.554-.888.962-.888 2.886 0 1.702 1.036 2.664 1.035.962 3.108.962M360.412 346v-8.806h13.986l-4.736 4.662v-31.598l4.736 4.736h-13.986v-8.806h17.39l1.036 12.432-.962-.814q.444-5.624 2.812-8.584 2.368-3.034 7.4-3.034h9.176v9.028h-8.214q-2.812 0-4.588.962-1.776.888-2.664 2.738-.814 1.776-.814 4.588v18.352l-4.662-4.662h16.65V346zM403.895 346v-8.806h14.43v-26.936l4.662 4.736h-18.352v-8.806h24.938v31.006h12.21V346zm14.208-44.252v-9.25h11.396v9.25zM447.822 346v-39.812h10.286l.37 11.1-1.11-.37q.666-3.996 2.442-6.586t4.366-3.774q2.664-1.258 5.994-1.258 4.218 0 6.808 1.924 2.664 1.85 3.922 5.18t1.258 7.77V346h-11.322v-23.384q0-4.144-1.332-5.994-1.258-1.85-3.922-1.85-1.702 0-3.182.962t-2.368 2.812-.888 4.662V346zM489.973 357.1v-50.912h10.952l.37 9.25-.962-.444q1.554-4.662 4.662-7.178t7.992-2.516q5.032 0 8.436 2.738 3.479 2.664 5.18 7.4 1.702 4.662 1.702 10.656 0 5.92-1.702 10.656t-5.18 7.474q-3.404 2.664-8.436 2.664-3.181 0-5.698-.962a11.3 11.3 0 0 1-4.218-2.886q-1.701-1.998-2.886-5.032l1.11-.962V357.1zm19.092-20.054q3.627 0 5.55-2.516 1.998-2.59 1.998-8.436t-1.998-8.362q-1.923-2.59-5.55-2.59-2.22 0-3.996 1.184-1.776 1.11-2.812 3.552-.962 2.442-.962 6.216t.962 6.216q1.036 2.442 2.812 3.626 1.776 1.11 3.996 1.11M546.48 346.888q-3.625 0-6.66-1.332-3.034-1.332-4.81-3.848-1.776-2.59-1.776-6.216 0-5.032 3.256-7.77 3.33-2.812 8.658-4.07l11.544-2.516q0-3.33-1.258-5.18-1.257-1.924-4.366-1.924-2.663 0-4.07 1.406-1.406 1.406-1.776 3.478l-11.618-.592q1.11-5.92 5.698-9.472t11.47-3.552q9.102 0 13.172 4.366 4.07 4.291 4.07 12.21v13.172q0 1.627.518 2.22.519.518 1.48.518h1.332V346q-.444.073-1.48.222-1.035.148-2.22.148-3.108 0-5.328-1.11a8 8 0 0 1-3.33-3.182q-1.183-2.072-1.258-4.884h1.036a10.47 10.47 0 0 1-1.85 4.958q-1.554 2.22-4.218 3.478-2.589 1.258-6.216 1.258m2.516-8.214q2.443 0 4.144-.888t2.59-2.664q.963-1.776.962-4.292v-1.998l-7.696 1.776q-2.293.518-3.256 1.554-.888.962-.888 2.886 0 1.702 1.036 2.664t3.108.962M591.221 343.188v-36.482q0-2.22-1.11-3.33t-3.33-1.11h-8.362v-8.806h10.656q6.735 0 10.064 3.404 3.404 3.33 3.404 10.064v36.26zM576.939 346v-8.806h37.888V346zM625.602 329.498v-10.212h27.824v10.212zM683.738 346.888q-5.772 0-10.138-2.59-4.366-2.664-6.882-7.326-2.516-4.736-2.516-10.878t2.516-10.804q2.516-4.735 6.882-7.326 4.365-2.664 10.138-2.664 4.736 0 8.658 1.998 3.996 1.924 6.586 5.476 2.59 3.478 3.182 8.288l-11.174.518q-.666-3.108-2.516-4.736-1.851-1.702-4.662-1.702-3.7 0-5.772 2.96-2.072 2.886-2.072 7.992t2.072 8.066q2.072 2.886 5.772 2.886 2.811 0 4.662-1.702 1.923-1.776 2.59-5.032l11.174.592q-.593 4.736-3.182 8.362-2.516 3.626-6.512 5.624t-8.806 1.998M709.831 346v-52.54h11.322v21.164l-.888-.962q1.035-2.96 2.664-4.736a10.4 10.4 0 0 1 4.07-2.738q2.367-.888 5.254-.888 4.07 0 6.66 1.85 2.59 1.776 3.848 5.18 1.257 3.33 1.258 7.992V346h-11.322v-23.532q0-4.291-1.406-5.994-1.332-1.702-3.7-1.702-2.739 0-4.588 2.146t-1.85 6.438V346zM770.482 346.888q-5.55 0-9.916-2.516-4.293-2.59-6.734-7.252-2.442-4.662-2.442-11.026 0-6.142 2.368-10.804 2.441-4.735 6.734-7.326 4.291-2.664 9.916-2.664 5.624 0 9.842 2.664 4.292 2.59 6.734 7.326t2.442 11.026v2.738h-26.418q.369 3.848 2.442 5.92 2.145 2.072 5.328 2.072 2.442 0 4.144-1.11 1.776-1.184 2.442-3.182l11.248.814q-2.147 6.512-6.734 9.916-4.514 3.404-11.396 3.404m-7.326-25.086h14.208q-.37-3.33-2.22-4.958-1.85-1.702-4.81-1.702-2.961 0-4.884 1.702-1.85 1.702-2.294 4.958M814.631 346.888q-5.772 0-10.138-2.59-4.366-2.664-6.882-7.326-2.516-4.736-2.516-10.878t2.516-10.804q2.516-4.735 6.882-7.326 4.366-2.664 10.138-2.664 4.736 0 8.658 1.998 3.996 1.924 6.586 5.476 2.59 3.478 3.182 8.288l-11.174.518q-.666-3.108-2.516-4.736-1.85-1.702-4.662-1.702-3.7 0-5.772 2.96-2.072 2.886-2.072 7.992t2.072 8.066q2.072 2.886 5.772 2.886 2.813 0 4.662-1.702 1.924-1.776 2.59-5.032l11.174.592q-.592 4.736-3.182 8.362-2.516 3.626-6.512 5.624t-8.806 1.998M839.17 346v-52.54h11.322v28.786l13.764-16.058h13.098l-14.874 17.094L878.02 346h-12.802l-10.138-15.54-4.588 5.106V346zM901.301 346.888q-5.698 0-9.99-2.516-4.292-2.59-6.734-7.252-2.368-4.736-2.368-11.026 0-6.364 2.368-11.026 2.442-4.662 6.734-7.178 4.292-2.59 9.99-2.59t9.99 2.59q4.291 2.516 6.66 7.178 2.442 4.662 2.442 11.026t-2.442 11.026q-2.369 4.662-6.66 7.252-4.292 2.516-9.99 2.516m0-9.842q3.552 0 5.476-2.812t1.924-8.14q0-5.402-1.924-8.14-1.924-2.812-5.476-2.812t-5.476 2.812q-1.924 2.738-1.924 8.14 0 5.328 1.924 8.14t5.476 2.812M939.678 346.888q-5.55 0-8.732-3.626-3.108-3.7-3.108-10.804v-26.27h11.322v23.384q0 4.218 1.332 6.068 1.332 1.776 3.848 1.776t4.366-2.072q1.924-2.147 1.924-6.216v-22.94h11.322V346h-10.36l-.296-11.988 1.258.222q-.74 6.068-4.144 9.398-3.33 3.256-8.732 3.256M993.891 346q-7.03 0-10.286-3.182t-3.256-9.768v-36.186h11.322v34.928q0 2.738 1.332 4.07t4.07 1.332h8.957V346zm-24.42-31.006v-8.806h36.559v8.806z"/><g fill="#000" opacity=".8"><path d="M279.526 386.392V409h-3.312v-22.608h-7.2v-3.168h17.712v3.168zM303.951 391.36l-11.052 25.416h-3.42l4.104-8.892-7.272-16.524h3.6l5.256 12.672h.072l5.112-12.672zM315.472 406.552q2.376 0 3.996-1.8 1.62-1.764 1.62-4.572 0-2.772-1.62-4.572t-3.996-1.8q-2.412 0-4.032 1.8-1.584 1.8-1.584 4.572 0 2.808 1.584 4.608 1.62 1.764 4.032 1.764m.54 3.024q-1.944 0-3.564-.828-1.584-.828-2.448-2.196h-.144L310 409v7.776h-3.312V391.36h3.168v2.448H310q.864-1.368 2.448-2.196 1.62-.828 3.564-.828 3.492 0 5.904 2.736 2.484 2.772 2.484 6.66 0 3.924-2.484 6.66-2.412 2.736-5.904 2.736M336.074 409.576q-3.888 0-6.408-2.664t-2.52-6.732q0-4.032 2.448-6.696 2.448-2.7 6.264-2.7 3.924 0 6.228 2.556 2.34 2.52 2.34 7.092l-.036.36h-13.86q.072 2.592 1.728 4.176t3.96 1.584q3.168 0 4.968-3.168l2.952 1.44q-1.188 2.232-3.312 3.492-2.088 1.26-4.752 1.26m-5.292-11.52h10.116q-.144-1.836-1.512-3.024-1.332-1.224-3.6-1.224-1.872 0-3.24 1.152-1.332 1.152-1.764 3.096M359.695 399.208h-11.52v-2.736h11.52zM377.934 404.104q0 2.304-2.016 3.888t-5.076 1.584q-2.664 0-4.68-1.368a7.74 7.74 0 0 1-2.88-3.672l2.952-1.26q.648 1.584 1.872 2.484 1.26.864 2.736.864 1.584 0 2.628-.684 1.08-.684 1.08-1.62 0-1.692-2.592-2.484l-3.024-.756q-5.148-1.296-5.148-4.968 0-2.412 1.944-3.852 1.98-1.476 5.04-1.476 2.34 0 4.212 1.116 1.908 1.116 2.664 2.988l-2.952 1.224q-.504-1.116-1.656-1.728-1.116-.648-2.52-.648-1.296 0-2.34.648-1.008.648-1.008 1.584 0 1.512 2.844 2.16l2.664.684q5.256 1.296 5.256 5.292M384.124 403.6q0 1.296 1.08 2.16 1.116.864 2.592.864 2.088 0 3.708-1.548 1.656-1.548 1.656-3.636-1.548-1.224-4.32-1.224-2.016 0-3.384.972-1.332.972-1.332 2.412m4.284-12.816q3.672 0 5.796 1.98 2.124 1.944 2.124 5.364V409h-3.168v-2.448h-.144q-2.052 3.024-5.472 3.024-2.916 0-4.896-1.728-1.944-1.728-1.944-4.32 0-2.736 2.052-4.356 2.088-1.62 5.544-1.62 2.952 0 4.86 1.08v-.756q0-1.728-1.368-2.916a4.65 4.65 0 0 0-3.204-1.224q-2.772 0-4.392 2.34l-2.916-1.836q2.412-3.456 7.128-3.456M408.568 382.936q1.8 0 2.952.612l-.9 2.916q-.864-.432-1.944-.432-1.224 0-2.016.864-.756.828-.756 2.232v2.232h4.608v3.024h-4.608V409h-3.312v-14.616h-3.312v-3.024h3.312v-2.556q0-2.628 1.656-4.248 1.692-1.62 4.32-1.62M421.236 409.576q-3.888 0-6.408-2.664t-2.52-6.732q0-4.032 2.448-6.696 2.448-2.7 6.264-2.7 3.924 0 6.228 2.556 2.34 2.52 2.34 7.092l-.036.36h-13.86q.072 2.592 1.728 4.176t3.96 1.584q3.168 0 4.968-3.168l2.952 1.44q-1.188 2.232-3.312 3.492-2.088 1.26-4.752 1.26m-5.292-11.52h10.116q-.144-1.836-1.512-3.024-1.332-1.224-3.6-1.224-1.872 0-3.24 1.152-1.332 1.152-1.764 3.096M458.815 409h-17.712v-3.456l13.716-19.152h-13.14v-3.168h16.992v3.456l-13.716 19.152h13.86zM465.42 403.6q0 1.296 1.08 2.16 1.116.864 2.592.864 2.088 0 3.708-1.548 1.656-1.548 1.656-3.636-1.548-1.224-4.32-1.224-2.016 0-3.384.972-1.332.972-1.332 2.412m4.284-12.816q3.672 0 5.796 1.98 2.124 1.944 2.124 5.364V409h-3.168v-2.448h-.144q-2.052 3.024-5.472 3.024-2.916 0-4.896-1.728-1.944-1.728-1.944-4.32 0-2.736 2.052-4.356 2.088-1.62 5.544-1.62 2.952 0 4.86 1.08v-.756q0-1.728-1.368-2.916a4.65 4.65 0 0 0-3.204-1.224q-2.772 0-4.392 2.34l-2.916-1.836q2.412-3.456 7.128-3.456M485.391 409h-3.312v-17.64h3.168v2.88h.144q.504-1.404 2.052-2.376 1.584-1.008 3.096-1.008 1.44 0 2.448.432l-1.008 3.204q-.612-.252-1.944-.252-1.872 0-3.276 1.512-1.368 1.512-1.368 3.528zM500.161 385.276q0 .972-.684 1.656a2.26 2.26 0 0 1-1.656.684q-.972 0-1.656-.684a2.26 2.26 0 0 1-.684-1.656q0-.972.684-1.656a2.26 2.26 0 0 1 1.656-.684q.972 0 1.656.684t.684 1.656m-.684 6.084V409h-3.312v-17.64zM504.507 391.36h3.168v2.448h.144q.756-1.296 2.304-2.16 1.584-.864 3.276-.864 3.24 0 4.968 1.872 1.764 1.836 1.764 5.256V409h-3.312v-10.872q-.108-4.32-4.356-4.32-1.98 0-3.312 1.62-1.332 1.584-1.332 3.816V409h-3.312zM528.627 398.56V409h-3.312v-25.776h8.784q3.348 0 5.688 2.232 2.376 2.232 2.376 5.436 0 3.276-2.376 5.472-2.304 2.196-5.688 2.196zm0-12.168v9h5.544q1.98 0 3.276-1.332 1.332-1.332 1.332-3.168 0-1.8-1.332-3.132-1.296-1.368-3.276-1.368zM547.488 403.6q0 1.296 1.08 2.16 1.116.864 2.592.864 2.088 0 3.708-1.548 1.656-1.548 1.656-3.636-1.548-1.224-4.32-1.224-2.016 0-3.384.972-1.332.972-1.332 2.412m4.284-12.816q3.672 0 5.796 1.98 2.124 1.944 2.124 5.364V409h-3.168v-2.448h-.144q-2.052 3.024-5.472 3.024-2.916 0-4.896-1.728-1.944-1.728-1.944-4.32 0-2.736 2.052-4.356 2.088-1.62 5.544-1.62 2.952 0 4.86 1.08v-.756q0-1.728-1.368-2.916a4.65 4.65 0 0 0-3.204-1.224q-2.772 0-4.392 2.34l-2.916-1.836q2.412-3.456 7.128-3.456M567.46 383.224V409h-3.312v-25.776zM588.91 409.576q-3.924 0-6.516-2.664-2.556-2.736-2.556-6.732 0-4.068 2.556-6.732 2.592-2.664 6.516-2.664 2.7 0 4.716 1.368 2.016 1.332 3.024 3.708l-3.024 1.26q-1.404-3.312-4.932-3.312-2.268 0-3.924 1.836-1.62 1.836-1.62 4.536t1.62 4.536q1.656 1.836 3.924 1.836 3.636 0 5.112-3.312l2.952 1.26q-.972 2.376-3.06 3.744-2.052 1.332-4.788 1.332M600.374 383.224h3.312v8.136l-.144 2.448h.144q.756-1.296 2.304-2.16 1.584-.864 3.276-.864 3.24 0 4.968 1.872 1.764 1.836 1.764 5.256V409h-3.312v-10.44q0-4.752-4.212-4.752-2.016 0-3.42 1.692-1.368 1.656-1.368 3.888V409h-3.312zM628.526 409.576q-3.888 0-6.408-2.664t-2.52-6.732q0-4.032 2.448-6.696 2.448-2.7 6.264-2.7 3.924 0 6.228 2.556 2.34 2.52 2.34 7.092l-.036.36h-13.86q.072 2.592 1.728 4.176t3.96 1.584q3.168 0 4.968-3.168l2.952 1.44q-1.188 2.232-3.312 3.492-2.088 1.26-4.752 1.26m-5.292-11.52h10.116q-.144-1.836-1.512-3.024-1.332-1.224-3.6-1.224-1.872 0-3.24 1.152-1.332 1.152-1.764 3.096M648.867 409.576q-3.924 0-6.516-2.664-2.556-2.736-2.556-6.732 0-4.068 2.556-6.732 2.592-2.664 6.516-2.664 2.7 0 4.716 1.368 2.016 1.332 3.024 3.708l-3.024 1.26q-1.404-3.312-4.932-3.312-2.268 0-3.924 1.836-1.62 1.836-1.62 4.536t1.62 4.536q1.656 1.836 3.924 1.836 3.636 0 5.112-3.312l2.952 1.26q-.972 2.376-3.06 3.744-2.052 1.332-4.788 1.332M675.847 409h-3.996l-5.508-8.316-2.7 2.664V409h-3.312v-25.776h3.312V399.1l7.632-7.74h4.248v.144l-6.876 6.84 7.2 10.512zM676.918 400.18q0-4.068 2.556-6.732 2.592-2.664 6.516-2.664t6.48 2.664q2.592 2.664 2.592 6.732 0 4.104-2.592 6.732-2.556 2.664-6.48 2.664t-6.516-2.664q-2.556-2.664-2.556-6.732m3.312 0q0 2.844 1.656 4.608t4.104 1.764 4.104-1.764 1.656-4.608q0-2.808-1.656-4.572-1.692-1.8-4.104-1.8t-4.104 1.8q-1.656 1.764-1.656 4.572M714.095 409h-3.168v-2.448h-.144q-.756 1.296-2.34 2.16-1.548.864-3.24.864-3.24 0-5.004-1.836-1.728-1.872-1.728-5.292V391.36h3.312v10.872q.108 4.32 4.356 4.32 1.98 0 3.312-1.584 1.332-1.62 1.332-3.852v-9.756h3.312zM726.006 409.288q-2.16 0-3.6-1.332-1.404-1.332-1.44-3.708v-9.864h-3.096v-3.024h3.096v-5.4h3.312v5.4h4.32v3.024h-4.32v8.784q0 1.764.684 2.412.684.612 1.548.612.396 0 .756-.072.396-.108.72-.252l1.044 2.952q-1.296.468-3.024.468M749.163 409.576q-3.924 0-6.516-2.664-2.556-2.736-2.556-6.732 0-4.068 2.556-6.732 2.592-2.664 6.516-2.664 2.7 0 4.716 1.368 2.016 1.332 3.024 3.708l-3.024 1.26q-1.404-3.312-4.932-3.312-2.268 0-3.924 1.836-1.62 1.836-1.62 4.536t1.62 4.536q1.656 1.836 3.924 1.836 3.636 0 5.112-3.312l2.952 1.26q-.972 2.376-3.06 3.744-2.052 1.332-4.788 1.332M763.94 383.224V409h-3.312v-25.776zM772.979 385.276q0 .972-.684 1.656a2.26 2.26 0 0 1-1.656.684q-.972 0-1.656-.684a2.26 2.26 0 0 1-.684-1.656q0-.972.684-1.656a2.26 2.26 0 0 1 1.656-.684q.972 0 1.656.684t.684 1.656m-.684 6.084V409h-3.312v-17.64zM785.07 409.576q-3.888 0-6.408-2.664t-2.52-6.732q0-4.032 2.448-6.696 2.448-2.7 6.264-2.7 3.924 0 6.228 2.556 2.34 2.52 2.34 7.092l-.036.36h-13.86q.072 2.592 1.728 4.176t3.96 1.584q3.168 0 4.968-3.168l2.952 1.44q-1.188 2.232-3.312 3.492-2.088 1.26-4.752 1.26m-5.292-11.52h10.116q-.144-1.836-1.512-3.024-1.332-1.224-3.6-1.224-1.872 0-3.24 1.152-1.332 1.152-1.764 3.096M797.17 391.36h3.169v2.448h.143q.756-1.296 2.304-2.16 1.585-.864 3.276-.864 3.241 0 4.969 1.872 1.764 1.836 1.763 5.256V409h-3.312v-10.872q-.108-4.32-4.356-4.32-1.98 0-3.311 1.62-1.332 1.584-1.333 3.816V409h-3.312zM823.472 409.288q-2.16 0-3.6-1.332-1.404-1.332-1.44-3.708v-9.864h-3.096v-3.024h3.096v-5.4h3.312v5.4h4.32v3.024h-4.32v8.784q0 1.764.684 2.412.684.612 1.548.612.396 0 .756-.072.396-.108.72-.252l1.044 2.952q-1.296.468-3.024.468M845.998 382.936q1.8 0 2.952.612l-.9 2.916q-.864-.432-1.944-.432-1.224 0-2.016.864-.756.828-.756 2.232v2.232h4.608v3.024h-4.608V409h-3.312v-14.616h-3.312v-3.024h3.312v-2.556q0-2.628 1.656-4.248 1.692-1.62 4.32-1.62M849.738 400.18q0-4.068 2.556-6.732 2.592-2.664 6.516-2.664t6.48 2.664q2.592 2.664 2.592 6.732 0 4.104-2.592 6.732-2.556 2.664-6.48 2.664t-6.516-2.664q-2.556-2.664-2.556-6.732m3.312 0q0 2.844 1.656 4.608t4.104 1.764 4.104-1.764 1.656-4.608q0-2.808-1.656-4.572-1.692-1.8-4.104-1.8t-4.104 1.8q-1.656 1.764-1.656 4.572M874.571 409h-3.312v-17.64h3.168v2.88h.144q.504-1.404 2.052-2.376 1.584-1.008 3.096-1.008 1.44 0 2.448.432l-1.008 3.204q-.612-.252-1.944-.252-1.872 0-3.276 1.512-1.368 1.512-1.368 3.528zM897.575 409h-3.312v-25.776h4.032l12.528 20.052h.144l-.144-4.968v-15.084h3.312V409h-3.456l-13.104-21.024h-.144l.144 4.968zM918.465 400.18q0-4.068 2.556-6.732 2.592-2.664 6.516-2.664t6.48 2.664q2.592 2.664 2.592 6.732 0 4.104-2.592 6.732-2.556 2.664-6.48 2.664t-6.516-2.664q-2.556-2.664-2.556-6.732m3.312 0q0 2.844 1.656 4.608t4.104 1.764 4.104-1.764 1.656-4.608q0-2.808-1.656-4.572-1.692-1.8-4.104-1.8t-4.104 1.8q-1.656 1.764-1.656 4.572M948.258 406.552q2.448 0 3.996-1.764 1.62-1.764 1.62-4.608 0-2.772-1.62-4.572-1.584-1.8-3.996-1.8-2.376 0-3.996 1.8t-1.62 4.572q0 2.808 1.62 4.572 1.62 1.8 3.996 1.8m-.54 3.024q-3.456 0-5.94-2.736-2.448-2.772-2.448-6.66t2.448-6.66q2.484-2.736 5.94-2.736 1.944 0 3.528.828 1.62.828 2.484 2.196h.144l-.144-2.448v-8.136h3.312V409h-3.168v-2.448h-.144q-.864 1.368-2.484 2.196-1.584.828-3.528.828M969.544 409.576q-3.888 0-6.408-2.664t-2.52-6.732q0-4.032 2.448-6.696 2.448-2.7 6.264-2.7 3.924 0 6.228 2.556 2.34 2.52 2.34 7.092l-.036.36H964q.072 2.592 1.728 4.176t3.96 1.584q3.168 0 4.968-3.168l2.952 1.44q-1.188 2.232-3.312 3.492-2.088 1.26-4.752 1.26m-5.292-11.52h10.116q-.144-1.836-1.512-3.024-1.332-1.224-3.6-1.224-1.872 0-3.24 1.152-1.332 1.152-1.764 3.096M986.253 406.768q0 1.008-.72 1.728-.684.72-1.728.72-1.008 0-1.728-.72a2.36 2.36 0 0 1-.72-1.728q0-1.044.72-1.728.72-.72 1.728-.72 1.044 0 1.728.72.72.684.72 1.728M994.313 385.276q0 .972-.684 1.656a2.26 2.26 0 0 1-1.656.684q-.972 0-1.656-.684a2.26 2.26 0 0 1-.684-1.656q0-.972.684-1.656a2.26 2.26 0 0 1 1.656-.684q.972 0 1.656.684t.684 1.656m-5.976 31.86q-1.08 0-1.944-.36l.864-2.88q.576.216.972.216 2.016 0 2.088-2.484V391.36h3.312v19.764q0 6.012-5.292 6.012M1011.98 404.104q0 2.304-2.01 3.888c-1.35 1.056-3.04 1.584-5.08 1.584q-2.655 0-4.68-1.368a7.75 7.75 0 0 1-2.878-3.672l2.948-1.26c.44 1.056 1.06 1.884 1.88 2.484q1.26.864 2.73.864c1.06 0 1.93-.228 2.63-.684q1.08-.684 1.08-1.62c0-1.128-.86-1.956-2.59-2.484l-3.03-.756q-5.143-1.296-5.144-4.968 0-2.412 1.944-3.852 1.98-1.476 5.04-1.476c1.56 0 2.96.372 4.21 1.116q1.905 1.116 2.67 2.988l-2.96 1.224q-.495-1.116-1.65-1.728-1.125-.648-2.52-.648-1.305 0-2.34.648c-.67.432-1.01.96-1.01 1.584 0 1.008.95 1.728 2.84 2.16l2.67.684q5.25 1.296 5.25 5.292"/></g><g fill="#000" opacity=".8"><path d="M577.769 503.664q-1.512.684-2.916 1.008-1.368.36-2.736.36-2.628 0-4.716-1.332-2.088-1.296-3.276-4.104-1.188-2.844-1.188-7.38 0-4.14.864-7.272t2.376-5.256q1.548-2.124 3.6-3.168 2.052-1.08 4.464-1.08 2.916 0 4.896 1.512 2.016 1.512 3.06 4.176 1.044 2.628 1.044 6.156 0 4.068-.648 6.48-.648 2.376-1.8 3.42t-2.736 1.044q-1.224 0-2.088-1.044t-1.116-2.772l.432-.072q-.252 1.224-.864 2.088-.612.828-1.404 1.26a3.5 3.5 0 0 1-1.692.432q-1.836 0-2.88-1.62-1.008-1.656-1.008-4.536 0-2.448.684-4.464.72-2.052 1.908-3.276 1.188-1.26 2.736-1.26.9 0 1.548.396t.972 1.08q.36.648.324 1.512l-.396.396.36-3.312h2.7a271 271 0 0 1-.432 4.212l-.324 3.42a36 36 0 0 0-.108 2.556q0 1.224.324 1.836t.828.612q.576 0 1.044-.792.504-.792.756-2.592.288-1.8.288-4.86 0-2.844-.684-4.968t-2.124-3.276-3.744-1.152q-1.8 0-3.348.864t-2.736 2.664q-1.188 1.764-1.836 4.428-.648 2.628-.648 6.156 0 3.672.828 5.976.828 2.268 2.34 3.312t3.492 1.044q1.116 0 2.268-.324t2.376-.972zm-5.544-7.956q.54 0 1.008-.504.504-.54.9-1.476.396-.972.612-2.196.216-1.26.216-2.7 0-1.656-.468-2.484-.432-.864-1.296-.864-.756 0-1.368.864-.576.864-.972 2.268-.36 1.404-.36 3.096 0 1.836.432 2.916.468 1.08 1.296 1.08M595.683 501.432q-2.556 0-4.392-.864t-2.844-2.304a6.65 6.65 0 0 1-1.152-3.276l3.708-.216q.288 1.548 1.44 2.484 1.152.9 3.276.9 1.98 0 3.024-.54t1.044-1.692q0-.72-.36-1.188-.36-.504-1.368-.828-.972-.36-2.88-.72-2.844-.54-4.464-1.26-1.584-.756-2.268-1.872-.684-1.152-.684-2.772 0-1.656.828-2.988.864-1.332 2.52-2.088 1.656-.792 4.104-.792 2.556 0 4.212.9 1.656.864 2.592 2.268a7.5 7.5 0 0 1 1.188 3.06l-3.708.216a4.04 4.04 0 0 0-.756-1.62 3.54 3.54 0 0 0-1.44-1.116q-.9-.432-2.088-.432-1.908 0-2.808.756t-.9 1.836q0 .864.432 1.404.432.504 1.44.864 1.008.324 2.736.648 2.916.468 4.5 1.224 1.584.72 2.232 1.8t.648 2.664q0 1.728-1.008 2.988-.972 1.224-2.736 1.908-1.728.648-4.068.648M609.637 501v-3.06h7.488v-14.688l1.692 1.656h-8.82v-3.06h10.8v16.092h6.408V501zm7.272-21.924v-3.78h3.744v3.78zM637.415 501.432q-1.8 0-3.24-.648t-2.304-1.836q-.828-1.188-.828-2.772 0-2.448 1.476-3.816 1.512-1.368 4.536-1.944l6.192-1.296q0-2.232-.972-3.348t-2.916-1.116q-1.8 0-2.808.828t-1.368 2.304l-3.816-.252q.54-2.736 2.628-4.428t5.364-1.692q3.672 0 5.58 2.088 1.944 2.088 1.944 5.76v7.56q0 .648.288.936.288.252.828.252h1.08V501a9 9 0 0 1-.72.072 12 12 0 0 1-.936.036q-1.296 0-2.196-.432a2.94 2.94 0 0 1-1.368-1.332q-.432-.936-.504-2.34h.576q-.216 1.26-1.116 2.268t-2.304 1.584-3.096.576m.54-2.988q1.728 0 2.916-.612t1.764-1.728q.612-1.116.612-2.628V492l-5.328 1.08q-1.728.324-2.412 1.008t-.684 1.8q0 1.188.828 1.872t2.304.684M652.809 501v-19.152h3.168l.144 4.32-.396-.108q.36-2.196 1.404-3.42 1.08-1.224 2.7-1.224 1.728 0 2.592 1.224.9 1.224 1.116 3.636h-.396q.324-2.304 1.476-3.564 1.152-1.296 2.88-1.296 2.268 0 3.276 1.584 1.044 1.548 1.044 5.076V501h-3.528v-12.312q0-2.304-.504-3.204-.468-.9-1.476-.9-.648 0-1.188.432-.504.432-.792 1.368-.288.9-.288 2.376V501h-3.456v-12.312q0-2.232-.468-3.168-.432-.936-1.476-.936-.684 0-1.188.432t-.828 1.368q-.288.9-.288 2.376V501zM682.027 501.432q-1.8 0-3.24-.648t-2.304-1.836q-.828-1.188-.828-2.772 0-2.448 1.476-3.816 1.512-1.368 4.536-1.944l6.192-1.296q0-2.232-.972-3.348t-2.916-1.116q-1.8 0-2.808.828t-1.368 2.304l-3.816-.252q.54-2.736 2.628-4.428t5.364-1.692q3.672 0 5.58 2.088 1.944 2.088 1.944 5.76v7.56q0 .648.288.936.288.252.828.252h1.08V501a9 9 0 0 1-.72.072 12 12 0 0 1-.936.036q-1.296 0-2.196-.432a2.94 2.94 0 0 1-1.368-1.332q-.432-.936-.504-2.34h.576q-.216 1.26-1.116 2.268t-2.304 1.584-3.096.576m.54-2.988q1.728 0 2.916-.612t1.764-1.728q.612-1.116.612-2.628V492l-5.328 1.08q-1.728.324-2.412 1.008t-.684 1.8q0 1.188.828 1.872t2.304.684M699.005 501v-25.56h3.636v16.056l8.64-9.648h4.644l-7.488 8.136L716.249 501h-4.284l-5.94-8.568-3.384 3.564V501z"/></g></g><defs><linearGradient id="d" x1="668.961" x2="629.024" y1="121" y2="234.101" gradientUnits="userSpaceOnUse"><stop stop-color="#ffd60a"/><stop offset="1" stop-color="#f0ba09"/></linearGradient><linearGradient id="e" x1="633.418" x2="609.217" y1="128.155" y2="188.482" gradientUnits="userSpaceOnUse"><stop stop-color="#051a80"/><stop offset="1" stop-color="#0a33ff"/></linearGradient><filter id="b" width="864" height="864" x="862" y="196" color-interpolation-filters="sRGB" filterUnits="userSpaceOnUse"><feFlood flood-opacity="0" result="BackgroundImageFix"/><feBlend in="SourceGraphic" in2="BackgroundImageFix" result="shape"/><feGaussianBlur result="effect1_foregroundBlur_9756_297" stdDeviation="72"/></filter><filter id="c" width="941" height="941" x="-506" y="-494" color-interpolation-filters="sRGB" filterUnits="userSpaceOnUse"><feFlood flood-opacity="0" result="BackgroundImageFix"/><feBlend in="SourceGraphic" in2="BackgroundImageFix" result="shape"/><feGaussianBlur result="effect1_foregroundBlur_9756_297" stdDeviation="72"/></filter><clipPath id="a"><path fill="#fff" d="M0 0h1280v640H0z"/></clipPath></defs></svg>
